<svg xmlns="http://www.w3.org/2000/svg" width="18.26" height="25.641" viewBox="0 0 18.26 25.641">
  <g id="Add_Restaurant" transform="translate(-341.931 -746.202)">
    <path id="Subtraction_2" data-name="Subtraction 2" d="M-13.439-14.407H-28.275a1.714,1.714,0,0,1-1.712-1.712v-.571a4.57,4.57,0,0,1,4.565-4.565h1.966a6.207,6.207,0,0,0,2.6.571,6.19,6.19,0,0,0,2.6-.571h1.966a4.57,4.57,0,0,1,4.565,4.565v.571A1.714,1.714,0,0,1-13.439-14.407ZM-20.858-22.4a5.142,5.142,0,0,1-5.135-5.136,5.1,5.1,0,0,1,.935-2.953c.013.016,1.189,1.568,4.4,1.605h.109c2.943,0,3.817-1.425,3.907-1.588a5.1,5.1,0,0,1,.922,2.935A5.142,5.142,0,0,1-20.858-22.4Zm.2-6.934a11.465,11.465,0,0,1-4.4-1.155,5.146,5.146,0,0,1,4.2-2.182,5.146,5.146,0,0,1,4.208,2.191A8.752,8.752,0,0,1-20.659-29.33Z" transform="translate(371.918 786.25)" fill="#fff"/>
    <path id="Path_6" data-name="Path 6" d="M346.923,752.971s1.375.049,4.434.236a13.893,13.893,0,0,0,4.43-.236,5.682,5.682,0,0,1-.482-2.094,6.176,6.176,0,0,1,.482-2.151,21.45,21.45,0,0,0-8.864,0,10.307,10.307,0,0,1,.27,2.151A9.44,9.44,0,0,1,346.923,752.971Z" transform="translate(-0.294 2.734)" fill="#fff"/>
    <path id="Subtraction_1" data-name="Subtraction 1" d="M-28.466-25.751c-.048,0-.127-.077-.226-.222-.58-.844-1.7-3.689-1.143-5.133s1.692-1.475,3.132-1.515c.288-.008.586-.017.9-.036.1-.007.2-.01.3-.01a2.492,2.492,0,0,1,1.56.487,3.265,3.265,0,0,0,1.653.594c.227.023.435.033.636.033a5.524,5.524,0,0,0,1.39-.19,5.67,5.67,0,0,1,1.417-.191c.139,0,.285.005.436.016.2.013.387.019.585.019.224,0,.42-.008.586-.016l.054,0c.148-.006.288-.013.417-.013a1.812,1.812,0,0,1,1.572.824c1.023,1.175,1.057,2.518,1,4.026-.04,1.033-.513,1.25-.9,1.25a1.787,1.787,0,0,1-.8-.23c-.288-.151-.239-.447-.182-.79.1-.6.223-1.344-1.217-1.855a6.849,6.849,0,0,0-2.32-.361,21.174,21.174,0,0,0-2.352.179,21.654,21.654,0,0,1-2.424.183,4.2,4.2,0,0,1-1.813-.268.544.544,0,0,0-.2-.06c-.112,0-.239.082-.562.328a4.335,4.335,0,0,0-1.093,2.125C-28.227-26.1-28.333-25.751-28.466-25.751Zm3.235-5.907a3.832,3.832,0,0,0-1.988.55c-.506.492.179,1.342.241,1.417a1.015,1.015,0,0,1,.211-1.146A4.514,4.514,0,0,1-25.232-31.658Z" transform="translate(372.992 778.869)" fill="#fff"/>
    <path id="Path_11" data-name="Path 11" d="M348.337,751.9c-.08.084-.361,3.338-.361,3.338a4.95,4.95,0,0,0,.761-1.817A2.441,2.441,0,0,0,348.337,751.9Z"/>
    <path id="Subtraction_3" data-name="Subtraction 3" d="M-27.55-31.161c-.06,0-.122,0-.185,0a.5.5,0,0,0,.143-.351.5.5,0,0,0-.5-.5.5.5,0,0,0-.5.5.5.5,0,0,0,.08.271,8.672,8.672,0,0,1-1.475-.379v-1.044a9.374,9.374,0,0,0,2.437.619,8.639,8.639,0,0,0,2.375-.619v1.044h0l-.005,0A7.4,7.4,0,0,1-27.55-31.161Z" transform="translate(378.604 796.348)" fill="#fff"/>
    <circle id="Ellipse_5" data-name="Ellipse 5" cx="0.5" cy="0.5" r="0.5" transform="translate(351.013 766.333)"/>
    <circle id="Ellipse_6" data-name="Ellipse 6" cx="0.5" cy="0.5" r="0.5" transform="translate(351.013 768.333)"/>
    <circle id="Ellipse_7" data-name="Ellipse 7" cx="0.5" cy="0.5" r="0.5" transform="translate(351.013 770.333)"/>
  </g>
</svg>
