<svg xmlns="http://www.w3.org/2000/svg" width="28.923" height="22.496" viewBox="0 0 28.923 22.496">
  <path id="amazonpay" d="M6.262,10.776c.005-.593,0-1.18,0-1.773V7.231a.144.144,0,0,1,.07-.136A2.916,2.916,0,0,1,8.25,6.538a1.522,1.522,0,0,1,1.411,1.09,3.947,3.947,0,0,1,.206,1.391A4.116,4.116,0,0,1,9.7,10.3,1.625,1.625,0,0,1,7.9,11.5a2.919,2.919,0,0,1-1.577-.588.158.158,0,0,1-.065-.141Zm7.778.733a1.48,1.48,0,0,0,.708.075,3.217,3.217,0,0,0,1.572-.628.134.134,0,0,0,.065-.126c-.005-.2,0-.4,0-.593s-.005-.4,0-.6c0-.07-.02-.1-.09-.11-.352-.045-.7-.11-1.049-.146a2.628,2.628,0,0,0-1.044.1.968.968,0,0,0-.688.658,1.362,1.362,0,0,0,.005.813.826.826,0,0,0,.522.562ZM28.923,4.66V22.336a2.411,2.411,0,0,1-2.41,2.41H2.41A2.411,2.411,0,0,1,0,22.336V4.66A2.411,2.411,0,0,1,2.41,2.25h24.1A2.411,2.411,0,0,1,28.923,4.66ZM18.5,5.86a1.673,1.673,0,0,0,.08.256c.829,2.039,1.652,4.082,2.486,6.121a.593.593,0,0,1,.01.5c-.141.311-.246.633-.392.939a.989.989,0,0,1-.638.562,1.867,1.867,0,0,1-.648.045c-.105-.01-.211-.035-.316-.04-.141-.01-.211.055-.216.2s-.005.281,0,.417c.005.231.08.336.311.377a4.85,4.85,0,0,0,.713.085,1.767,1.767,0,0,0,1.662-.9,5.556,5.556,0,0,0,.387-.773q1.491-3.774,2.973-7.557a.932.932,0,0,0,.065-.231c.02-.121-.035-.181-.156-.186-.281-.005-.557,0-.839,0a.316.316,0,0,0-.321.216c-.02.055-.045.115-.065.171l-1.461,4.2c-.105.306-.211.608-.326.934-.02-.045-.03-.07-.04-.1q-.813-2.252-1.627-4.509c-.085-.236-.176-.477-.266-.713a.274.274,0,0,0-.271-.2c-.321-.005-.643-.01-.964-.005a.138.138,0,0,0-.141.186Zm-6.332,5.127a1.742,1.742,0,0,0,.9,1.336,2.458,2.458,0,0,0,1.592.231,3.422,3.422,0,0,0,1.7-.778c.02-.015.04-.03.07-.05.025.161.045.311.075.462a.242.242,0,0,0,.226.221c.231.005.457.005.688,0a.2.2,0,0,0,.2-.2.928.928,0,0,0,.005-.115V7.638A3.934,3.934,0,0,0,17.6,7.1a1.66,1.66,0,0,0-.8-1.275,2.446,2.446,0,0,0-.914-.3c-.151-.02-.3-.035-.457-.055h-.5a.955.955,0,0,1-.126.015,5.816,5.816,0,0,0-1.215.176c-.256.065-.5.161-.753.246a.3.3,0,0,0-.221.326c.005.141-.005.281,0,.417.005.206.09.261.286.206.326-.085.658-.176.989-.241a4.8,4.8,0,0,1,1.562-.06,1.026,1.026,0,0,1,.708.352,1.17,1.17,0,0,1,.221.688c.015.346.01.7.015,1.044a.3.3,0,0,1-.01.06.188.188,0,0,1-.055-.005,7.578,7.578,0,0,0-1.346-.206,3.667,3.667,0,0,0-1.4.161,2.058,2.058,0,0,0-1.235,1.044,2.181,2.181,0,0,0-.171,1.3ZM4.956,6.011v8.8a1.05,1.05,0,0,0,.005.126.208.208,0,0,0,.206.211q.444.008.889,0a.2.2,0,0,0,.206-.206,1.05,1.05,0,0,0,.005-.126V11.771c.045.035.07.06.1.08a2.947,2.947,0,0,0,2.566.648,2.58,2.58,0,0,0,1.843-1.466,4.406,4.406,0,0,0,.437-1.858,4.744,4.744,0,0,0-.341-2.094A2.466,2.466,0,0,0,9.024,5.529c-.136-.03-.276-.04-.412-.06H8.26c-.06.01-.121.015-.181.025a3.369,3.369,0,0,0-1.6.638c-.1.07-.2.151-.3.226-.005-.025-.015-.04-.02-.06-.02-.115-.035-.231-.055-.346A.288.288,0,0,0,5.79,5.67H5.3C5.006,5.665,4.956,5.72,4.956,6.011Zm19.83,11.655a.591.591,0,0,0-.382.05,25.4,25.4,0,0,1-6.869,1.8c-.728.085-1.461.141-2.194.161a25.336,25.336,0,0,1-4-.216,26.687,26.687,0,0,1-2.661-.5,24.793,24.793,0,0,1-5.358-1.948c-.442-.221-.874-.467-1.311-.7-.191-.105-.311-.075-.412.105V16.5a1.712,1.712,0,0,0,.186.241A18.562,18.562,0,0,0,7.914,20.4a19.22,19.22,0,0,0,3.379.879,18.715,18.715,0,0,0,2.119.226c.151.005.3.01.452.02a.762.762,0,0,1,.105.015h.889a.762.762,0,0,1,.105-.015,18.645,18.645,0,0,0,2.24-.2,19.9,19.9,0,0,0,3.158-.738,16.029,16.029,0,0,0,4.188-2.014,2.451,2.451,0,0,0,.4-.311.345.345,0,0,0-.166-.6Zm2.531-1.391c-.04-.211-.2-.291-.382-.352a3.763,3.763,0,0,0-.884-.166,6.238,6.238,0,0,0-1.647.08,4.244,4.244,0,0,0-1.682.658.5.5,0,0,0-.156.151.249.249,0,0,0-.025.171c.015.065.085.08.151.075a.546.546,0,0,0,.09-.005l.979-.105a8.7,8.7,0,0,1,1.446-.04,3.445,3.445,0,0,1,.6.11.424.424,0,0,1,.321.437,3.236,3.236,0,0,1-.146.979,17.016,17.016,0,0,1-.668,1.9.607.607,0,0,0-.04.126c-.02.126.05.2.171.176a.432.432,0,0,0,.2-.105,5.607,5.607,0,0,0,.532-.562,5.727,5.727,0,0,0,1.039-2.34c.035-.151.06-.306.085-.457.01-.236.01-.482.01-.728Z" transform="translate(0 -2.25)" fill="#fff"/>
</svg>
