<svg xmlns="http://www.w3.org/2000/svg" width="28.519" height="28.52" viewBox="0 0 28.519 28.52">
  <path id="baby-carriage" d="M8.066.947A2.092,2.092,0,0,0,5.058.423,13.125,13.125,0,0,0,0,10.695H14.26Zm19.563,4.4H24.955A3.568,3.568,0,0,0,21.39,8.912v3.565H0a9.877,9.877,0,0,0,3.359,7.28,4.45,4.45,0,1,0,5.554,4.306,4.5,4.5,0,0,0-.245-1.4,14.42,14.42,0,0,0,7.62,0,4.346,4.346,0,0,0-.245,1.4A4.456,4.456,0,1,0,21.6,19.757a9.877,9.877,0,0,0,3.359-7.28V8.912h2.674a.894.894,0,0,0,.891-.891V6.238A.894.894,0,0,0,27.628,5.347ZM4.456,25.846a1.782,1.782,0,1,1,1.782-1.782A1.788,1.788,0,0,1,4.456,25.846Zm17.825-1.782A1.782,1.782,0,1,1,20.5,22.281,1.788,1.788,0,0,1,22.281,24.063Z" transform="translate(0 0.001)" fill="#fff"/>
</svg>
