<svg xmlns="http://www.w3.org/2000/svg" width="33" height="33" viewBox="0 0 33 33">
  <path id="Differenzmenge_23" data-name="Differenzmenge 23" d="M16.5-983a16.392,16.392,0,0,1-11.667-4.833A16.392,16.392,0,0,1,0-999.5a16.392,16.392,0,0,1,4.833-11.667A16.392,16.392,0,0,1,16.5-1016a16.392,16.392,0,0,1,11.667,4.833A16.392,16.392,0,0,1,33-999.5a16.129,16.129,0,0,1-1,5.632,17.379,17.379,0,0,1-2.9,4.989c-.23.281.044,1.164.334,2.1.368,1.187.785,2.533.278,2.968a.322.322,0,0,1-.214.061,6.694,6.694,0,0,1-1.907-.689l-.182-.083a7.087,7.087,0,0,0-2.293-.771.671.671,0,0,0-.348.079A16.2,16.2,0,0,1,16.5-983Zm10.855-19.1a3.043,3.043,0,0,0-3.04,3.04,3.043,3.043,0,0,0,3.04,3.04,3.043,3.043,0,0,0,3.04-3.04A3.043,3.043,0,0,0,27.355-1002.105Zm-10.421,0a3.043,3.043,0,0,0-3.04,3.04,3.043,3.043,0,0,0,3.04,3.04,3.043,3.043,0,0,0,3.04-3.04A3.043,3.043,0,0,0,16.934-1002.105Zm-10.422,0a3.043,3.043,0,0,0-3.04,3.04,3.043,3.043,0,0,0,3.04,3.04,3.043,3.043,0,0,0,3.04-3.04A3.043,3.043,0,0,0,6.513-1002.105Z" transform="translate(0 1016)" fill="#fff"/>
</svg>
