<svg width="11" height="12" viewBox="0 0 11 12" fill="none" xmlns="http://www.w3.org/2000/svg">
<path d="M1.45727 0.67404C1.27725 0.464645 0.961561 0.440833 0.752165 0.620856C0.54277 0.800878 0.518958 1.11656 0.698981 1.32596L1.45727 0.67404ZM9.59154 11.6695C9.77156 11.8789 10.0872 11.9027 10.2966 11.7226C10.506 11.5426 10.5299 11.2269 10.3498 11.0175L9.59154 11.6695ZM0.698981 1.32596L9.59154 11.6695L10.3498 11.0175L1.45727 0.67404L0.698981 1.32596Z" fill="#3F3F3F"/>
<path d="M10.423 1.39969C10.6062 1.19306 10.5872 0.877044 10.3805 0.693855C10.1739 0.510666 9.85788 0.529669 9.67469 0.7363L10.423 1.39969ZM0.625712 10.9432C0.442523 11.1499 0.461526 11.4659 0.668157 11.6491C0.874788 11.8323 1.1908 11.8133 1.37399 11.6066L0.625712 10.9432ZM9.67469 0.7363L0.625712 10.9432L1.37399 11.6066L10.423 1.39969L9.67469 0.7363Z" fill="#3F3F3F"/>
</svg>
