<svg xmlns="http://www.w3.org/2000/svg" width="24.889" height="24.889" viewBox="0 0 24.889 24.889">
  <path id="coin" d="M0,19.7v2.076c0,1.716,4.181,3.111,9.334,3.111s9.334-1.4,9.334-3.111V19.7c-2.008,1.415-5.678,2.076-9.334,2.076S2.008,21.117,0,19.7ZM15.556,6.222c5.153,0,9.334-1.4,9.334-3.111S20.709,0,15.556,0,6.222,1.4,6.222,3.111,10.4,6.222,15.556,6.222ZM0,14.6v2.508c0,1.716,4.181,3.111,9.334,3.111s9.334-1.4,9.334-3.111V14.6c-2.008,1.653-5.683,2.508-9.334,2.508S2.008,16.256,0,14.6Zm20.223.535c2.785-.54,4.667-1.541,4.667-2.693V10.369a11.938,11.938,0,0,1-4.667,1.677ZM9.334,7.778C4.181,7.778,0,9.518,0,11.667s4.181,3.889,9.334,3.889,9.334-1.74,9.334-3.889S14.486,7.778,9.334,7.778Zm10.661,2.737c2.917-.525,4.9-1.556,4.9-2.737V5.7c-1.726,1.22-4.691,1.876-7.812,2.032A5.444,5.444,0,0,1,19.994,10.515Z" fill="#fff"/>
</svg>
