<svg width="24" height="24" viewBox="0 0 24 24" fill="none" xmlns="http://www.w3.org/2000/svg">
<path d="M22.4571 11.4786C22.4571 13.4791 21.9225 15.3532 20.9887 16.9675C20.8383 17.2274 20.8351 17.5268 20.864 17.7689C20.8944 18.0233 20.9714 18.3004 21.0666 18.5768C21.2424 19.0868 21.5095 19.6741 21.764 20.2338C21.7848 20.2795 21.8055 20.325 21.826 20.3703C22.1062 20.9873 22.3601 21.559 22.4984 22.0192C22.5679 22.2502 22.5978 22.4205 22.5986 22.5354C22.5986 22.5409 22.5986 22.5461 22.5985 22.551C22.5949 22.5508 22.591 22.5506 22.5871 22.5504C22.4611 22.5425 22.2784 22.5053 22.0378 22.434C21.5596 22.2924 20.9604 22.0496 20.3266 21.7886C20.283 21.7706 20.2391 21.7526 20.1952 21.7345C19.6152 21.4954 19.0151 21.2479 18.5074 21.0823C18.2346 20.9933 17.9672 20.9206 17.7302 20.8879C17.5197 20.8588 17.2196 20.8429 16.9675 20.9887C15.3532 21.9225 13.4791 22.4571 11.4786 22.4571C5.41527 22.4571 0.5 17.5419 0.5 11.4786C0.5 5.41527 5.41527 0.5 11.4786 0.5C17.5419 0.5 22.4571 5.41527 22.4571 11.4786ZM22.5896 22.6257C22.5896 22.6257 22.5898 22.6249 22.5905 22.6235C22.59 22.625 22.5896 22.6257 22.5896 22.6257ZM22.6847 22.5485C22.686 22.5482 22.6867 22.548 22.6867 22.5481L22.6847 22.5485Z" stroke="white"/>
<rect x="5.73926" y="5.73926" width="11.4786" height="2.86964" rx="1.43482" fill="white"/>
<rect x="5.73926" y="11.4785" width="11.4786" height="2.86964" rx="1.43482" fill="white"/>
</svg>
