<svg width="33" height="33" viewBox="0 0 33 33" fill="none" xmlns="http://www.w3.org/2000/svg">
<path d="M32.2978 16.3989C32.2978 19.2956 31.5236 22.01 30.1712 24.348C29.991 24.6595 29.981 25.0309 30.0204 25.3603C30.0612 25.7019 30.1657 26.0814 30.2996 26.47C30.5472 27.1885 30.9246 28.0183 31.2894 28.8207C31.3188 28.8852 31.348 28.9495 31.3771 29.0135C31.7759 29.8919 32.1452 30.7223 32.3478 31.3962C32.4494 31.734 32.4986 31.9999 32.5 32.1939C32.5006 32.2885 32.4896 32.3508 32.4774 32.3887C32.4725 32.4038 32.4678 32.4142 32.4639 32.4212C32.4421 32.4268 32.3816 32.4385 32.2558 32.4306C32.052 32.4179 31.773 32.3595 31.4236 32.2561C30.7278 32.0499 29.8612 31.6985 28.9582 31.3267C28.8964 31.3012 28.8345 31.2757 28.7724 31.2501C27.9414 30.9075 27.0914 30.5571 26.3742 30.3231C25.9892 30.1975 25.6211 30.0981 25.301 30.0539C25.0074 30.0133 24.6419 30.0011 24.348 30.1712C22.01 31.5236 19.2956 32.2978 16.3989 32.2978C7.61819 32.2978 0.5 25.1797 0.5 16.3989C0.5 7.61819 7.61819 0.5 16.3989 0.5C25.1797 0.5 32.2978 7.61819 32.2978 16.3989Z" stroke="#343434"/>
<path d="M8.19922 10.2493L8.25443 9.75233C8.06126 9.73086 7.87315 9.82329 7.7721 9.98932C7.67105 10.1554 7.67538 10.3649 7.78319 10.5266L8.19922 10.2493ZM26.648 12.2991L26.8716 12.7463C27.0698 12.6472 27.1791 12.4295 27.1402 12.2113C27.1013 11.9932 26.9235 11.8267 26.7032 11.8022L26.648 12.2991ZM18.4485 16.3989L18.2249 15.9517L17.9485 16.0898V16.3989H18.4485ZM18.4485 25.6233L18.0325 25.9006C18.1547 26.0839 18.3826 26.1657 18.5934 26.1018C18.8043 26.038 18.9485 25.8436 18.9485 25.6233H18.4485ZM8.144 10.7462L26.5928 12.7961L26.7032 11.8022L8.25443 9.75233L8.144 10.7462ZM26.4244 11.8519L18.2249 15.9517L18.6722 16.8461L26.8716 12.7463L26.4244 11.8519ZM17.9485 16.3989V25.6233H18.9485V16.3989H17.9485ZM18.8646 25.3459L8.61524 9.97192L7.78319 10.5266L18.0325 25.9006L18.8646 25.3459Z" fill="#343434"/>
</svg>
