<svg width="17" height="17" viewBox="0 0 17 17" fill="none" xmlns="http://www.w3.org/2000/svg">
<path d="M15.5 8C15.5 9.36691 15.1348 10.647 14.4969 11.7496C14.3677 11.9731 14.3692 12.2216 14.3908 12.402C14.4138 12.5948 14.4713 12.7995 14.5392 12.9965C14.6641 13.3591 14.8533 13.775 15.0298 14.1632C15.0446 14.1956 15.0592 14.2278 15.0737 14.2597C15.27 14.692 15.4423 15.0808 15.5352 15.3899C15.5518 15.4451 15.5645 15.4936 15.5741 15.5359C15.5243 15.5245 15.4672 15.5094 15.4023 15.4902C15.0779 15.394 14.6678 15.2281 14.2244 15.0455C14.1935 15.0328 14.1625 15.02 14.1313 15.0072C13.7288 14.8412 13.3053 14.6666 12.9457 14.5493C12.7524 14.4862 12.5561 14.4324 12.3778 14.4077C12.226 14.3868 11.9722 14.3682 11.7496 14.4969C10.647 15.1348 9.36691 15.5 8 15.5C3.85786 15.5 0.5 12.1421 0.5 8C0.5 3.85786 3.85786 0.5 8 0.5C12.1421 0.5 15.5 3.85786 15.5 8ZM15.5973 15.733C15.5973 15.733 15.5974 15.732 15.5978 15.7302L15.5973 15.733ZM15.7834 15.566C15.7895 15.5649 15.793 15.5648 15.7932 15.565C15.7934 15.5653 15.7904 15.5658 15.7834 15.566Z" stroke="black"/>
<rect x="4" y="4" width="8" height="2" rx="1" fill="black"/>
<rect x="4" y="8" width="8" height="2" rx="1" fill="black"/>
</svg>
