<svg width="42" height="42" viewBox="0 0 42 42" fill="none" xmlns="http://www.w3.org/2000/svg">
<circle cx="21" cy="21" r="21" fill="#1F1F1F"/>
<path d="M17.3977 12.7988C17.3977 11.7588 17.6677 10.9288 18.2077 10.3088C18.7677 9.66883 19.4477 9.34883 20.2477 9.34883C21.0477 9.34883 21.7177 9.66883 22.2577 10.3088C22.8177 10.9288 23.0977 11.7588 23.0977 12.7988L20.6977 24.3488H19.7977L17.3977 12.7988ZM20.2477 31.0988C19.6477 31.0988 19.1177 30.8688 18.6577 30.4088C18.2177 29.9288 17.9977 29.3588 17.9977 28.6988C17.9977 28.0388 18.2177 27.4788 18.6577 27.0188C19.1177 26.5388 19.6477 26.2988 20.2477 26.2988C20.8477 26.2988 21.3677 26.5388 21.8077 27.0188C22.2677 27.4788 22.4977 28.0388 22.4977 28.6988C22.4977 29.3588 22.2677 29.9288 21.8077 30.4088C21.3677 30.8688 20.8477 31.0988 20.2477 31.0988Z" fill="white"/>
</svg>
