<svg xmlns="http://www.w3.org/2000/svg" width="42" height="66" viewBox="0 0 42 66">
  <g id="Complaint" transform="translate(-63 -746)">
    <rect id="Rechteck_22" data-name="Rechteck 22" width="42" height="66" rx="21" transform="translate(63 746)" opacity="0.3"/>
    <g id="Gruppe_4" data-name="Gruppe 4" transform="translate(0 59)" opacity="0.8">
      <path id="Differenzmenge_13" data-name="Differenzmenge 13" d="M19-978.412a18.876,18.876,0,0,1-13.435-5.566A18.875,18.875,0,0,1,0-997.411a18.921,18.921,0,0,1,3.1-10.4,19.026,19.026,0,0,1,8.017-6.889L15-996.412a3.975,3.975,0,0,0,1.173,2.827A3.973,3.973,0,0,0,19-992.412a4,4,0,0,0,4-4l4.106-18.19a19.05,19.05,0,0,1,7.861,6.888A18.935,18.935,0,0,1,38-997.411a18.875,18.875,0,0,1-5.565,13.434A18.876,18.876,0,0,1,19-978.412Zm0-10a4,4,0,0,0-4,4,4,4,0,0,0,4,4,4,4,0,0,0,4-4A4.005,4.005,0,0,0,19-988.412Z" transform="translate(65 1707.412)" fill="#fff"/>
    </g>
    <text id="_3" data-name="3" transform="translate(81 800)" fill="#fff" font-size="12" font-family="NSimSun"><tspan x="0" y="0">3</tspan></text>
  </g>
</svg>
