<svg xmlns="http://www.w3.org/2000/svg" width="33" height="31.517" viewBox="0 0 33 31.517">
  <path id="complaint" d="M16.5-983.187A16.392,16.392,0,0,1,4.833-988.02,16.391,16.391,0,0,1,0-999.687a16.431,16.431,0,0,1,2.69-9.034,16.522,16.522,0,0,1,6.962-5.983l3.374,15.886a3.452,3.452,0,0,0,1.018,2.455,3.45,3.45,0,0,0,2.455,1.018,3.478,3.478,0,0,0,3.474-3.473l3.566-15.8a16.543,16.543,0,0,1,6.827,5.981A16.444,16.444,0,0,1,33-999.687a16.391,16.391,0,0,1-4.833,11.667A16.392,16.392,0,0,1,16.5-983.187Zm0-8.685a3.478,3.478,0,0,0-3.473,3.474,3.477,3.477,0,0,0,3.473,3.473,3.478,3.478,0,0,0,3.474-3.473A3.478,3.478,0,0,0,16.5-991.872Z" transform="translate(0 1014.704)" fill="#ff6e6e"/>
</svg>
