<svg width="21" height="21" viewBox="0 0 21 21" fill="none" xmlns="http://www.w3.org/2000/svg">
<circle cx="10.5" cy="10.5" r="10.5" fill="#00FFD1"/>
<g clip-path="url(#clip0)">
<path d="M5.085 17.505C4.9575 17.505 4.83 17.4622 4.725 17.3745C2.67525 15.6652 1.5 13.152 1.5 10.4775C1.5 5.51473 5.53725 1.47748 10.5 1.47748C15.4628 1.47748 19.5 5.51473 19.5 10.4775C19.5 13.1632 18.3218 15.6772 16.266 17.376C16.0275 17.5732 15.672 17.5402 15.474 17.3002C15.276 17.061 15.3097 16.7062 15.5497 16.5082C17.346 15.024 18.3757 12.8257 18.3757 10.4767C18.3757 6.13423 14.8433 2.60173 10.5008 2.60173C6.15825 2.60173 2.625 6.13573 2.625 10.4775C2.625 12.8167 3.65325 15.0157 5.44575 16.5097C5.68425 16.7092 5.71575 17.0632 5.51775 17.3025C5.406 17.436 5.24625 17.505 5.085 17.505Z" fill="black"/>
<path d="M6.56335 10.4999C6.38635 10.4999 6.21085 10.4167 6.1021 10.2599C5.92435 10.0057 5.98585 9.65469 6.24085 9.47694L7.4566 8.62494L6.2401 7.77294C5.9851 7.59519 5.9236 7.24419 6.1021 6.98994C6.2791 6.73494 6.6301 6.67269 6.8851 6.85194L8.7601 8.16444C8.91085 8.26944 9.0001 8.44119 9.0001 8.62494C9.0001 8.80869 8.91085 8.98044 8.7601 9.08544L6.8851 10.3979C6.78685 10.4669 6.67435 10.4999 6.56335 10.4999Z" fill="black"/>
<path d="M14.4368 10.5001C14.3258 10.5001 14.2133 10.4671 14.115 10.3981L12.24 9.08556C12.0892 8.98056 12 8.8088 12 8.62506C12 8.44131 12.0892 8.26955 12.24 8.16455L14.115 6.85206C14.37 6.67431 14.721 6.73581 14.898 6.99006C15.0758 7.24431 15.0143 7.59531 14.7593 7.77306L13.5435 8.62506L14.76 9.47705C15.015 9.6548 15.0765 10.0058 14.8988 10.2601C14.7893 10.4168 14.6138 10.5001 14.4368 10.5001Z" fill="black"/>
<path d="M16.8966 19.4999H4.10156C3.79106 19.4999 3.53906 19.2479 3.53906 18.9374C3.53906 17.5169 4.22081 16.8067 4.79381 16.4609C5.76281 15.8572 7.07756 15.9052 7.87406 16.0117V13.1692C7.87406 12.8587 8.12606 12.6067 8.43656 12.6067C8.74706 12.6067 8.99906 12.8594 8.99906 13.1699V16.6874C8.99906 16.8614 8.91881 17.0257 8.78081 17.1314C8.64281 17.2379 8.46431 17.2754 8.29631 17.2319C7.78106 17.0999 6.25481 16.8749 5.38181 17.4194C5.03381 17.6302 4.81556 17.9444 4.72031 18.3749H16.2778C16.1826 17.9444 15.9636 17.6317 15.6178 17.4254C14.7388 16.8982 13.2186 17.1389 12.7071 17.2762C12.5353 17.3204 12.3568 17.2852 12.2196 17.1794C12.0801 17.0722 11.9991 16.9072 11.9991 16.7324V13.1699C11.9991 12.8594 12.2511 12.6074 12.5616 12.6074C12.8721 12.6074 13.1241 12.8594 13.1241 13.1699V16.0514C13.9206 15.9374 15.2256 15.8782 16.1961 16.4602C16.7721 16.8037 17.4598 17.5132 17.4598 18.9374C17.4591 19.2479 17.2071 19.4999 16.8966 19.4999Z" fill="black"/>
<path d="M14.25 13.7325H6.75C6.4395 13.7325 6.1875 13.4805 6.1875 13.17C6.1875 12.8595 6.4395 12.6075 6.75 12.6075H14.25C14.5605 12.6075 14.8125 12.8595 14.8125 13.17C14.8125 13.4805 14.5605 13.7325 14.25 13.7325Z" fill="black"/>
</g>
<defs>
<clipPath id="clip0">
<rect width="18" height="18" fill="white" transform="translate(1.5 1.5)"/>
</clipPath>
</defs>
</svg>
