<svg id="dog" xmlns="http://www.w3.org/2000/svg" width="25.104" height="23.534" viewBox="0 0 25.104 23.534">
  <path id="Icon_awesome-dog" data-name="Icon awesome-dog" d="M24.319,5.388H21.181l-.351-.7a1.569,1.569,0,0,0-1.4-.867H16.8L15.46,2.481a.785.785,0,0,0-1.34.555v7.347L20.4,12.624V10.879h1.569A3.138,3.138,0,0,0,25.1,7.741V6.172A.784.784,0,0,0,24.319,5.388ZM18.828,7.741a.784.784,0,1,1,.784-.784A.784.784,0,0,1,18.828,7.741ZM4.707,11.664a1.571,1.571,0,0,1-1.569-1.569,1.569,1.569,0,1,0-3.138,0,4.7,4.7,0,0,0,3.138,4.418V25a.784.784,0,0,0,.784.784H7.06A.784.784,0,0,0,7.845,25V19.509H15.69V25a.784.784,0,0,0,.784.784h3.138A.784.784,0,0,0,20.4,25V14.289l-7.352-2.626Z" transform="translate(0 -2.25)" fill="#fff"/>
</svg>
