<svg xmlns="http://www.w3.org/2000/svg" width="19.619" height="26.75" viewBox="0 0 19.619 26.75">
  <g id="gift" transform="translate(-148.201 -4.321)">
    <path id="Path_208" data-name="Path 208" d="M156.078,4.321h10.4" transform="translate(-3.168 0.5)" fill="none" stroke="#000" stroke-width="1"/>
    <path id="Path_209" data-name="Path 209" d="M151.369,8.833h19.619" transform="translate(-3.168 0.5)" fill="none" stroke="#000" stroke-width="1"/>
    <path id="Path_210" data-name="Path 210" d="M151.369,12.757H168.95" transform="translate(-1.914 0.5)" fill="none" stroke="#000" stroke-width="1"/>
    <path id="Icon_awesome-gift" data-name="Icon awesome-gift" d="M1.125,16.875A1.124,1.124,0,0,0,2.25,18H7.875V12.375H1.125Zm9,1.125H15.75a1.124,1.124,0,0,0,1.125-1.125v-4.5h-6.75Zm6.75-11.25H15.4a3.065,3.065,0,0,0,.355-1.406A3.1,3.1,0,0,0,12.657,2.25c-1.463,0-2.408.749-3.621,2.4C7.822,3,6.877,2.25,5.414,2.25A3.1,3.1,0,0,0,2.32,5.344,3.022,3.022,0,0,0,2.675,6.75H1.125A1.124,1.124,0,0,0,0,7.875v2.813a.564.564,0,0,0,.563.563H17.438A.564.564,0,0,0,18,10.688V7.875A1.124,1.124,0,0,0,16.875,6.75Zm-11.465,0a1.406,1.406,0,0,1,0-2.813c.7,0,1.216.116,3.027,2.813H5.411Zm7.246,0H9.63c1.807-2.69,2.31-2.813,3.027-2.813a1.406,1.406,0,0,1,0,2.813Z" transform="translate(149.109 12.571)" fill="none" stroke="#000" stroke-width="1"/>
  </g>
</svg>
