<svg width="26" height="24" viewBox="0 0 26 24" fill="none" xmlns="http://www.w3.org/2000/svg">
<path d="M18.6161 1.77456C20.1256 1.77456 21.5443 2.37643 22.6118 3.46896C24.8148 5.72443 24.8148 9.39451 22.6118 11.6503L16.9958 17.3998L13.0001 21.4902L9.00452 17.3995L3.38852 11.65C1.18546 9.39451 1.18546 5.72443 3.38852 3.46867C4.45568 2.37613 5.8747 1.77426 7.38414 1.77426C8.89359 1.77426 10.3123 2.37613 11.3798 3.46867L11.7747 3.87297L13.0001 5.12788L14.2256 3.87327L14.6205 3.46896C15.688 2.37613 17.107 1.77456 18.6161 1.77456ZM18.6161 0C16.7265 0 14.8366 0.73792 13.3951 2.21406L13.0001 2.61836L12.6052 2.21406C11.1634 0.73792 9.27377 0 7.38414 0C5.49452 0 3.60461 0.73792 2.16277 2.21406C-0.720922 5.16633 -0.720922 9.9526 2.16277 12.9049L7.77877 18.6544C7.77877 18.6544 7.77877 18.6544 7.77906 18.6544L13.0001 24L18.2212 18.6547L23.8372 12.9052C26.7209 9.9529 26.7209 5.16662 23.8372 2.21435C22.3957 0.73792 20.5061 0 18.6161 0Z" fill="white"/>
</svg>
