<svg width="8" height="7" viewBox="0 0 8 7" fill="none" xmlns="http://www.w3.org/2000/svg">
<path d="M5.72804 0.517579C6.19249 0.517579 6.62902 0.693125 6.95747 1.01178C7.63533 1.66962 7.63533 2.74006 6.95747 3.39799L5.22947 5.07495L4.00004 6.26797L2.77062 5.07486L1.04262 3.39791C0.364756 2.74006 0.364756 1.66962 1.04262 1.01169C1.37098 0.693038 1.8076 0.517493 2.27204 0.517493C2.73649 0.517493 3.17302 0.693038 3.50147 1.01169L3.62298 1.12962L4.00004 1.49563L4.37711 1.1297L4.49862 1.01178C4.82707 0.693039 5.26369 0.517579 5.72804 0.517579ZM5.72804 0C5.14662 0 4.56511 0.215227 4.12156 0.645766L4.00004 0.763688L3.87853 0.645766C3.43489 0.215227 2.85347 0 2.27204 0C1.69062 0 1.10911 0.215227 0.665467 0.645766C-0.221822 1.50685 -0.221822 2.90284 0.665467 3.76392L2.39347 5.44088C2.39347 5.44088 2.39347 5.44088 2.39356 5.44088L4.00004 7L5.60653 5.44096L7.33453 3.76401C8.22182 2.90293 8.22182 1.50693 7.33453 0.645853C6.89098 0.215227 6.30956 0 5.72804 0Z" fill="white"/>
</svg>
