<svg xmlns="http://www.w3.org/2000/svg" width="11.872" height="12.205" viewBox="0 0 11.872 12.205">
  <path id="icon-setting" d="M13.877,9.7a4.208,4.208,0,0,0,0-1.2L15.165,7.5a.308.308,0,0,0,.073-.391L14.018,5a.307.307,0,0,0-.372-.134l-1.519.61a4.458,4.458,0,0,0-1.031-.6l-.232-1.617a.3.3,0,0,0-.3-.256H8.123a.3.3,0,0,0-.3.256L7.592,4.873a4.688,4.688,0,0,0-1.031.6l-1.519-.61A.3.3,0,0,0,4.669,5L3.448,7.107a.3.3,0,0,0,.073.391L4.809,8.5a4.208,4.208,0,0,0,0,1.2L3.522,10.707a.308.308,0,0,0-.073.391l1.22,2.111a.307.307,0,0,0,.372.134l1.519-.61a4.458,4.458,0,0,0,1.031.6l.232,1.617a.3.3,0,0,0,.3.256h2.441a.3.3,0,0,0,.3-.256l.232-1.617a4.688,4.688,0,0,0,1.031-.6l1.519.61a.3.3,0,0,0,.372-.134l1.22-2.111a.308.308,0,0,0-.073-.391L13.877,9.7ZM9.343,11.238A2.136,2.136,0,1,1,11.479,9.1,2.138,2.138,0,0,1,9.343,11.238Z" transform="translate(-3.406 -3)" fill="#fff"/>
</svg>
