<svg xmlns="http://www.w3.org/2000/svg" width="97.732" height="23.911" viewBox="0 0 97.732 23.911">
  <g id="img-left" transform="translate(0.566 0.516)">
    <path id="Path_178" data-name="Path 178" d="M-3127.182-4422.453s-4.7,10.47-17.483,6.478-13.757-12.564-20.927-13.192c-15.861-1.389-14.83,15.912-7.855,17.3s8.769-4.9,7.106-7.743-5.292-1.264-5.292-1.264" transform="translate(3223.893 4429.246)" fill="none" stroke="#fff" stroke-width="1"/>
    <path id="Path_179" data-name="Path 179" d="M-3196.829-4405.954c-3.931,2.757-6.2-1.487-6.2-4.038a5.192,5.192,0,0,1,6.2-5.214c4.309.514,7.71,4.74,7.56,8.059s-1.059,11.732-9.979,11.219c-12.851-1.106-35.983-18.487-40.217-19.277s-9.442.2-11.037,3.95c-5.443,12.8,7.408,14.221,11.037,12.325s2.873-5.364,2.419-7.023-1.814-2.773-4.838-2.458-1.512,4.109-1.512,4.109" transform="translate(3251.827 4418.801)" fill="none" stroke="#fff" stroke-width="1"/>
  </g>
</svg>
