<svg xmlns="http://www.w3.org/2000/svg" width="97.729" height="23.911" viewBox="0 0 97.729 23.911">
  <g id="img-right" transform="translate(0.456 0.516)">
    <path id="Path_178" data-name="Path 178" d="M-3178.279-4422.453s4.695,10.47,17.483,6.478,13.758-12.564,20.927-13.192c15.861-1.389,14.83,15.912,7.855,17.3s-8.769-4.9-7.106-7.743,5.292-1.264,5.292-1.264" transform="translate(3178.279 4429.246)" fill="none" stroke="#fff" stroke-width="1"/>
    <path id="Path_179" data-name="Path 179" d="M-3244.263-4405.954c3.931,2.757,6.2-1.487,6.2-4.038a5.192,5.192,0,0,0-6.2-5.214c-4.309.514-7.711,4.74-7.56,8.059s1.059,11.732,9.979,11.219c12.851-1.106,35.983-18.487,40.217-19.277s9.442.2,11.037,3.95c5.443,12.8-7.408,14.221-11.037,12.325s-2.873-5.364-2.419-7.023,1.814-2.773,4.838-2.458,1.512,4.109,1.512,4.109" transform="translate(3285.975 4418.801)" fill="none" stroke="#fff" stroke-width="1"/>
  </g>
</svg>
