<svg xmlns="http://www.w3.org/2000/svg" xmlns:xlink="http://www.w3.org/1999/xlink" width="46" height="46" viewBox="0 0 46 46">
  <defs>
    <filter id="Path_69" x="0" y="0" width="46" height="46" filterUnits="userSpaceOnUse">
      <feOffset dy="3" input="SourceAlpha"/>
      <feGaussianBlur stdDeviation="3" result="blur"/>
      <feFlood flood-opacity="0.161"/>
      <feComposite operator="in" in2="blur"/>
      <feComposite in="SourceGraphic"/>
    </filter>
    <filter id="Path_72" x="0" y="0" width="46" height="46" filterUnits="userSpaceOnUse">
      <feOffset dy="3" input="SourceAlpha"/>
      <feGaussianBlur stdDeviation="3" result="blur-2"/>
      <feFlood flood-opacity="0.161"/>
      <feComposite operator="in" in2="blur-2"/>
      <feComposite in="SourceGraphic"/>
    </filter>
  </defs>
  <g id="Info" transform="translate(-325.351 -682.351)">
    <g transform="matrix(1, 0, 0, 1, 325.35, 682.35)" filter="url(#Path_69)">
      <path id="Path_69-2" data-name="Path 69" d="M14,0A14,14,0,1,1,0,14,14,14,0,0,1,14,0Z" transform="translate(9 6)" opacity="0.5"/>
    </g>
    <path id="Icon_open-info" data-name="Icon open-info" d="M6.759,0A2.253,2.253,0,1,0,9.013,2.253,2.26,2.26,0,0,0,6.759,0ZM3.38,5.633A3.375,3.375,0,0,0,0,9.013H2.253a1.127,1.127,0,1,1,2.253,0c0,.631-2.253,3.7-2.253,5.633a3.333,3.333,0,0,0,3.38,3.38,3.375,3.375,0,0,0,3.38-3.38H6.759a1.127,1.127,0,1,1-2.253,0c0-.811,2.253-4.146,2.253-5.633A3.4,3.4,0,0,0,3.38,5.633Z" transform="translate(342.587 692.063)" fill="#fff"/>
    <g transform="matrix(1, 0, 0, 1, 325.35, 682.35)" filter="url(#Path_72)">
      <g id="Path_72-2" data-name="Path 72" transform="translate(9 6)" fill="none">
        <path d="M14,0A14,14,0,1,1,0,14,14,14,0,0,1,14,0Z" stroke="none"/>
        <path d="M 14 1 C 10.5275707244873 1 7.262990951538086 2.352239608764648 4.807609558105469 4.807609558105469 C 2.352239608764648 7.262990951538086 1 10.5275707244873 1 14 C 1 17.47241973876953 2.352239608764648 20.73701095581055 4.807609558105469 23.19239044189453 C 7.262990951538086 25.64776039123535 10.5275707244873 27 14 27 C 17.47241973876953 27 20.73701095581055 25.64776039123535 23.19239044189453 23.19239044189453 C 25.64776039123535 20.73701095581055 27 17.47241973876953 27 14 C 27 10.5275707244873 25.64776039123535 7.262990951538086 23.19239044189453 4.807609558105469 C 20.73701095581055 2.352239608764648 17.47241973876953 1 14 1 M 14 0 C 21.73197937011719 0 28 6.268009185791016 28 14 C 28 21.73197937011719 21.73197937011719 28 14 28 C 6.268009185791016 28 0 21.73197937011719 0 14 C 0 6.268009185791016 6.268009185791016 0 14 0 Z" stroke="none" fill="#fff"/>
      </g>
    </g>
  </g>
</svg>
