<svg xmlns="http://www.w3.org/2000/svg" width="42" height="66" viewBox="0 0 42 66">
  <g id="Information" transform="translate(-320 -746)">
    <rect id="Rechteck_25" data-name="Rechteck 25" width="42" height="66" rx="21" transform="translate(320 746)" opacity="0.3"/>
    <g id="Gruppe_7" data-name="Gruppe 7" transform="translate(0 59)" opacity="0.8">
      <path id="Differenzmenge_11" data-name="Differenzmenge 11" d="M16.25-978.2h0a18.989,18.989,0,0,1-11.569-6.315A18.982,18.982,0,0,1,0-997a18.879,18.879,0,0,1,5.565-13.435A18.879,18.879,0,0,1,19-1016a18.879,18.879,0,0,1,13.435,5.565A18.879,18.879,0,0,1,38-997a18.933,18.933,0,0,1-1.154,6.536,18.934,18.934,0,0,1-3.188,5.554,19.055,19.055,0,0,1-10.84,6.527A3.489,3.489,0,0,0,23-979.5v-17a3.5,3.5,0,0,0-3.5-3.5,3.5,3.5,0,0,0-3.5,3.5v17a3.486,3.486,0,0,0,.249,1.3ZM19-1011a4,4,0,0,0-4,4,4,4,0,0,0,4,4,4.005,4.005,0,0,0,4-4A4,4,0,0,0,19-1011Z" transform="translate(322 1707)" fill="#fff"/>
    </g>
    <text id="_65" data-name="65" transform="translate(335 800)" fill="#fff" font-size="12" font-family="NSimSun"><tspan x="0" y="0">65</tspan></text>
  </g>
</svg>
