<svg width="22" height="21" viewBox="0 0 22 21" fill="none" xmlns="http://www.w3.org/2000/svg">
<circle cx="11" cy="10.5" r="10.5" fill="#00FFD1"/>
<path d="M14.8881 4.22001C15.9331 4.22001 16.9153 4.63379 17.6543 5.38491C19.1795 6.93554 19.1795 9.45872 17.6543 11.0096L13.7663 14.9624L11.0001 17.7745L8.2339 14.9622L4.3459 11.0094C2.8207 9.45872 2.8207 6.93554 4.3459 5.38471C5.0847 4.63359 6.0671 4.2198 7.1121 4.2198C8.1571 4.2198 9.1393 4.63359 9.8783 5.38471L10.1517 5.66267L11.0001 6.52542L11.8485 5.66287L12.1219 5.38491C12.8609 4.63359 13.8433 4.22001 14.8881 4.22001ZM14.8881 3C13.5799 3 12.2715 3.50732 11.2735 4.52216L11.0001 4.80012L10.7267 4.52216C9.7285 3.50732 8.4203 3 7.1121 3C5.8039 3 4.4955 3.50732 3.4973 4.52216C1.5009 6.55185 1.5009 9.84241 3.4973 11.8721L7.3853 15.8249C7.3853 15.8249 7.3853 15.8249 7.3855 15.8249L11.0001 19.5L14.6147 15.8251L18.5027 11.8723C20.4991 9.84262 20.4991 6.55205 18.5027 4.52237C17.5047 3.50732 16.1965 3 14.8881 3Z" fill="black"/>
</svg>
