<svg xmlns="http://www.w3.org/2000/svg" width="25" height="30" viewBox="0 0 25 30">
  <g id="list-a" transform="translate(-949 -111)">
    <path id="Path_147" data-name="Path 147" d="M942.261,114.387h11.9" transform="translate(10.323 2.779)" fill="none" stroke="#fff" stroke-linecap="round" stroke-width="3"/>
    <path id="Path_148" data-name="Path 148" d="M942.261,114.387h11.9" transform="translate(10.323 6.984)" fill="none" stroke="#fff" stroke-linecap="round" stroke-width="3"/>
    <path id="Path_149" data-name="Path 149" d="M942.261,114.387h11.9" transform="translate(10.323 11.19)" fill="none" stroke="#fff" stroke-linecap="round" stroke-width="3"/>
    <path id="Path_150" data-name="Path 150" d="M942.261,114.387h11.9" transform="translate(10.323 15.396)" fill="none" stroke="#fff" stroke-linecap="round" stroke-width="3"/>
    <path id="Path_151" data-name="Path 151" d="M942.261,114.387h11.9" transform="translate(10.323 19.602)" fill="none" stroke="#fff" stroke-linecap="round" stroke-width="3"/>
    <g id="Rectangle_459" data-name="Rectangle 459" transform="translate(949 111)" fill="none" stroke="#fff" stroke-width="1">
      <rect width="25" height="30" rx="4" stroke="none"/>
      <rect x="0.5" y="0.5" width="24" height="29" rx="3.5" fill="none"/>
    </g>
    <path id="Path_152" data-name="Path 152" d="M959.423,114.167h8.072" transform="translate(-1.841 -0.503)" fill="none" stroke="#fff" stroke-linecap="round" stroke-width="1"/>
    <path id="Path_153" data-name="Path 153" d="M942.261,114.387H944.6" transform="translate(25.833 2.779)" fill="none" stroke="#fff" stroke-linecap="round" stroke-width="3"/>
    <path id="Path_154" data-name="Path 154" d="M942.261,114.387H944.6" transform="translate(25.833 6.984)" fill="none" stroke="#fff" stroke-linecap="round" stroke-width="3"/>
    <path id="Path_155" data-name="Path 155" d="M942.261,114.387H944.6" transform="translate(25.833 11.19)" fill="none" stroke="#fff" stroke-linecap="round" stroke-width="3"/>
    <path id="Path_156" data-name="Path 156" d="M942.261,114.387H944.6" transform="translate(25.833 15.396)" fill="none" stroke="#fff" stroke-linecap="round" stroke-width="3"/>
    <path id="Path_157" data-name="Path 157" d="M942.261,114.387H944.6" transform="translate(25.833 19.602)" fill="none" stroke="#fff" stroke-linecap="round" stroke-width="3"/>
  </g>
</svg>
