<svg xmlns="http://www.w3.org/2000/svg" width="30" height="35" viewBox="0 0 30 35">
  <g id="list" transform="translate(-949 -111)">
    <path id="Path_147" data-name="Path 147" d="M942.261,114.387H956.41" transform="translate(11 3.943)" fill="none" stroke="#fff" stroke-linecap="round" stroke-width="3"/>
    <path id="Path_148" data-name="Path 148" d="M942.261,114.387H956.41" transform="translate(11 8.943)" fill="none" stroke="#fff" stroke-linecap="round" stroke-width="3"/>
    <path id="Path_149" data-name="Path 149" d="M942.261,114.387H956.41" transform="translate(11 13.943)" fill="none" stroke="#fff" stroke-linecap="round" stroke-width="3"/>
    <path id="Path_150" data-name="Path 150" d="M942.261,114.387H956.41" transform="translate(11 18.943)" fill="none" stroke="#fff" stroke-linecap="round" stroke-width="3"/>
    <path id="Path_151" data-name="Path 151" d="M942.261,114.387H956.41" transform="translate(11 23.943)" fill="none" stroke="#fff" stroke-linecap="round" stroke-width="3"/>
    <g id="Rectangle_459" data-name="Rectangle 459" transform="translate(949 111)" fill="none" stroke="#fff" stroke-width="1">
      <rect width="30" height="35" rx="4" stroke="none"/>
      <rect x="0.5" y="0.5" width="29" height="34" rx="3.5" fill="none"/>
    </g>
    <path id="Path_152" data-name="Path 152" d="M959.423,114.167h9.6" transform="translate(-0.221)" fill="none" stroke="#fff" stroke-linecap="round" stroke-width="1"/>
    <path id="Path_153" data-name="Path 153" d="M942.261,114.387h2.784" transform="translate(29.439 3.943)" fill="none" stroke="#fff" stroke-linecap="round" stroke-width="3"/>
    <path id="Path_154" data-name="Path 154" d="M942.261,114.387h2.784" transform="translate(29.439 8.943)" fill="none" stroke="#fff" stroke-linecap="round" stroke-width="3"/>
    <path id="Path_155" data-name="Path 155" d="M942.261,114.387h2.784" transform="translate(29.439 13.943)" fill="none" stroke="#fff" stroke-linecap="round" stroke-width="3"/>
    <path id="Path_156" data-name="Path 156" d="M942.261,114.387h2.784" transform="translate(29.439 18.943)" fill="none" stroke="#fff" stroke-linecap="round" stroke-width="3"/>
    <path id="Path_157" data-name="Path 157" d="M942.261,114.387h2.784" transform="translate(29.439 23.943)" fill="none" stroke="#fff" stroke-linecap="round" stroke-width="3"/>
  </g>
</svg>
