<svg xmlns="http://www.w3.org/2000/svg" width="27" height="27" viewBox="0 0 27 27">
  <path id="Differenzmenge_2" data-name="Differenzmenge 2" d="M512,27.5a13.41,13.41,0,0,1-5.321-1.089c-.008-1.3-.009-2.586,0-3.826,0-.407.142-.664.872-.859,2.167-.571,3.308-2.628,3.391-6.114a41.464,41.464,0,0,0-1.07-8.6c-.123-.611-.229-1.139-.306-1.577L509.2,18.1a.617.617,0,0,1-.614.6h-.008a.623.623,0,0,1-.6-.623l-.458-12.67-.716,12.649a.686.686,0,0,1-.681.6h-.011a.686.686,0,0,1-.673-.624l-.25-12.661-1,12.639a.624.624,0,0,1-.623.6.616.616,0,0,1-.6-.622l.12-12.646c-.11.532-.263,1.165-.44,1.9a40.258,40.258,0,0,0-1.388,8.436c-.039,3.369.975,5.327,3.1,5.986.719.222.847.484.832.889-.033.994-.072,2.018-.116,3.042A13.493,13.493,0,0,1,498.5,14a13.5,13.5,0,1,1,25.251,6.65,13.592,13.592,0,0,1-4.615,4.812c-.036-.948-.066-1.86-.091-2.713-.011-.43.126-.706.884-.933,2.694-.819,4.267-3.344,4.208-6.754a15.716,15.716,0,0,0-1.855-6.8,9.186,9.186,0,0,0-1.93-2.524,3.569,3.569,0,0,0-2.329-1h-.047A3.517,3.517,0,0,0,515.671,5.8a9.1,9.1,0,0,0-1.856,2.588,15.7,15.7,0,0,0-1.633,6.886c.059,3.394,1.7,5.858,4.4,6.592.762.206.907.476.907.9,0,1.167,0,2.371-.013,3.58A13.4,13.4,0,0,1,512,27.5Z" transform="translate(-498.5 -0.5)" fill="#D2FF57"/>
</svg>
