<svg xmlns="http://www.w3.org/2000/svg" width="37.494" height="22.496" viewBox="0 0 37.494 22.496">
  <path id="maestro" d="M31.387,16.35a11.2,11.2,0,0,0-7.5,2.866,11.248,11.248,0,1,0,0,16.763,11.247,11.247,0,1,0,7.5-19.63ZM13.153,30.429l.854-4.486-2.03,4.486H10.7l-.214-4.486-.854,4.486H8.346l1.068-5.875h2.243l.107,3.632,1.6-3.632h2.35l-1.175,5.875H13.153Zm6.516-2.564-.32,1.709v.32l-.107.214v.32H18.067v-.534a1.665,1.665,0,0,1-1.5.641q-1.282,0-1.282-1.388,0-1.815,2.457-1.816a1.517,1.517,0,0,1,.641.107v-.32c0-.283-.285-.427-.854-.427a3.685,3.685,0,0,0-1.175.107h-.214l-.107.107.107-1.068a6.3,6.3,0,0,1,1.709-.32q1.923,0,1.922,1.388a5.026,5.026,0,0,1-.107.962Zm4.273,2.457a5.957,5.957,0,0,1-1.389.214q-2.459,0-2.457-2.136,0-2.884,2.457-2.884,1.923,0,1.922,1.709a5.149,5.149,0,0,1-.107,1.175H21.485v.214c0,.571.391.854,1.175.854a3.305,3.305,0,0,0,1.5-.32l-.214,1.174Zm4.272-3.632H27.146q-.641,0-.641.32t.641.534a1.44,1.44,0,0,1,.961,1.388q0,1.6-2.243,1.6h-.32a.973.973,0,0,0-.427-.107h-.427l-.214-.107h-.107l.214-1.068a10.349,10.349,0,0,0,1.282.214q.854,0,.854-.427c0-.214-.214-.391-.641-.534Q24.9,27.972,24.9,27.117q0-1.6,2.243-1.6c.07,0,.267.018.588.054a6.712,6.712,0,0,0,.694.054l-.214,1.068Zm2.457,3.632a6.331,6.331,0,0,1-1.068.214.944.944,0,0,1-1.068-1.068V29.04l.107-.427v-.427l.748-3.632h1.388l-.214,1.068h.748L31.1,26.8H30.35l-.32,2.03a.309.309,0,0,0-.107.214c0,.214.177.32.534.32a.618.618,0,0,0,.427-.107l-.214,1.068Zm1.923.107H31.1l.854-4.807h1.388l-.214.748a1.765,1.765,0,0,1,1.282-.748h.32l.107.107L34.3,27.01h-.32q-.747,0-1.388,3.418Zm6.73-2.137a2.449,2.449,0,0,1-2.777,2.243q-2.351,0-2.35-2.243a2.686,2.686,0,0,1,.8-1.976,2.818,2.818,0,0,1,2.083-.8q2.243,0,2.243,2.136v.641Zm-22.646.748c0,.285.177.427.534.427q.961,0,.961-1.175h-.32C17.068,28.292,16.678,28.543,16.678,29.04Zm6.516-1.816a.567.567,0,0,0-.641-.641.954.954,0,0,0-.961.854h1.6v-.213ZM37.08,26.69q-1.177,0-1.175,1.6,0,1.069.748,1.068.854,0,1.175-1.175v-.534c0-.641-.251-.961-.748-.961Z" transform="translate(-5.141 -16.35)" fill="#fff"/>
</svg>
