<svg xmlns="http://www.w3.org/2000/svg" width="19.044" height="22.496" viewBox="0 0 19.044 22.496">
  <path id="paypal" d="M5.528,15.285c-.174.952-.863,5.392-1.067,6.647-.015.089-.05.124-.149.124H.612a.6.6,0,0,1-.6-.69L2.919,2.918a1.007,1.007,0,0,1,.992-.838c7.555,0,8.19-.184,10.119.566,2.981,1.156,3.254,3.944,2.183,6.96-1.067,3.105-3.6,4.44-6.95,4.479-2.153.035-3.448-.347-3.735,1.2ZM17.716,8.147c-.089-.064-.124-.089-.149.064a11.61,11.61,0,0,1-.437,1.667c-1.979,5.645-7.466,5.154-10.144,5.154a.5.5,0,0,0-.541.466C5.324,22.463,5.1,23.916,5.1,23.916a.528.528,0,0,0,.526.64h3.15a.89.89,0,0,0,.863-.739c.035-.268-.055.3.714-4.529.228-1.091.709-.977,1.453-.977,3.522,0,6.27-1.429,7.089-5.571.322-1.726.228-3.542-1.181-4.593Z" transform="translate(-0.006 -2.06)" fill="#fff"/>
</svg>
