<svg width="51" height="42" viewBox="0 0 51 42" fill="none" xmlns="http://www.w3.org/2000/svg">
<path fill-rule="evenodd" clip-rule="evenodd" d="M0 4C0 1.79086 1.79086 0 4 0H35C37.2091 0 39 1.79086 39 4V26C39 28.2091 37.2091 30 35 30H4C1.79086 30 0 28.2091 0 26V4ZM29 15C29 20.5229 24.5228 25 19 25C13.4772 25 9 20.5229 9 15C9 9.47714 13.4772 5 19 5C24.5228 5 29 9.47714 29 15ZM4 4C3.44772 4 3 4.44772 3 5C3 5.55228 3.44772 6 4 6H9C9.55228 6 10 5.55228 10 5C10 4.44772 9.55229 4 9 4H4Z" fill="#C4C4C4"/>
<path d="M34 31.75C33.4477 31.75 33 32.1977 33 32.75C33 33.3023 33.4477 33.75 34 33.75V31.75ZM49.5 33.75C50.0523 33.75 50.5 33.3023 50.5 32.75C50.5 32.1977 50.0523 31.75 49.5 31.75V33.75ZM34 33.75H49.5V31.75H34V33.75Z" fill="#C4C4C4"/>
<path d="M42.75 25C42.75 24.4477 42.3023 24 41.75 24C41.1977 24 40.75 24.4477 40.75 25L42.75 25ZM40.75 40.5C40.75 41.0523 41.1977 41.5 41.75 41.5C42.3023 41.5 42.75 41.0523 42.75 40.5L40.75 40.5ZM40.75 25L40.75 40.5L42.75 40.5L42.75 25L40.75 25Z" fill="#C4C4C4"/>
</svg>
