<svg xmlns="http://www.w3.org/2000/svg" width="172" height="172" viewBox="0 0 172 172">
  <g id="Profile" transform="translate(-309 -463)">
    <g id="Profile_Foto" transform="translate(0 2)">
      <circle id="Ellipse_27" data-name="Ellipse 27" cx="26" cy="26" r="26" transform="translate(369 521)" opacity="0.5"/>
      <g id="Gruppe_10" data-name="Gruppe 10" transform="translate(0 -1)">
        <circle id="Ellipse_23" data-name="Ellipse 23" cx="16.5" cy="16.5" r="16.5" transform="translate(378 532)" fill="#fff"/>
        <path id="Differenzmenge_18" data-name="Differenzmenge 18" d="M5.1-987.57h0A16.458,16.458,0,0,1,1.372-992.9,16.387,16.387,0,0,1,0-999.5a16.392,16.392,0,0,1,4.833-11.667A16.392,16.392,0,0,1,16.5-1016a16.393,16.393,0,0,1,11.668,4.833A16.391,16.391,0,0,1,33-999.5a16.386,16.386,0,0,1-1.372,6.6,16.444,16.444,0,0,1-3.729,5.332,17.547,17.547,0,0,0-9.411-3.305v-1.64a8.953,8.953,0,0,0,3.979-7.393c0-2.422,0-4.709-.746-6.329-.824-1.788-2.483-2.621-5.222-2.621s-4.4.833-5.221,2.621c-.746,1.62-.746,3.907-.746,6.329a8.955,8.955,0,0,0,3.978,7.393v1.64A17.535,17.535,0,0,0,5.1-987.57Z" transform="translate(378 1548)" fill="#444"/>
      </g>
    </g>
    <text id="_123" data-name="123" transform="translate(386 578)" fill="#fff" font-size="12" font-family="NSimSun"><tspan x="0" y="0">123</tspan></text>
  </g>
</svg>
