<svg width="28" height="22" viewBox="0 0 28 22" fill="none" xmlns="http://www.w3.org/2000/svg">
<circle cx="15" cy="13" r="7" fill="white"/>
<circle cx="15" cy="13" r="7" fill="white"/>
<circle cx="15" cy="13" r="7" fill="#919191"/>
<circle cx="15" cy="13" r="9" fill="white"/>
<circle cx="15" cy="13" r="9" fill="white"/>
<circle cx="15" cy="13" r="9" fill="white"/>
<path d="M5.5 8.03846C6 7.61538 6 2.11538 6 2.11538C6 2.11538 6 1.26923 5.5 1.26923C5 1.26923 5 2.11538 5 2.11538V7.19231C5 7.19231 4.5 7.61538 4 7.61538C3.5 7.61538 3.5 7.19231 3.5 7.19231V0.846154C3.5 0.846154 3.5 0 3 0C2.5 0 2.5 0.846154 2.5 0.846154V7.19231C2.5 7.19231 2.5 7.61538 2 7.61538C1.5 7.61538 1 7.19231 1 7.19231V2.11538C1 2.11538 1 1.26923 0.5 1.26923C0 1.26923 0 2.11538 0 2.11538C0 2.11538 5.42402e-05 7.61538 0.500054 8.03846L2.5 9.73077L1.5 20.7308C1.5 20.7308 2 22 3 22C4 22 4.5 20.7308 4.5 20.7308L3.5 9.73077L5.5 8.03846Z" fill="white"/>
<path d="M25.3913 0.846154C25.9131 0 27.4783 0 27.4783 0V13.5385L28 20.3077C28 20.3077 28 22 26.9565 22C25.913 22 25.913 20.3077 25.913 20.3077L26.4348 13.5385L25.3913 12.6923C24.8695 12.2692 24.8696 1.69231 25.3913 0.846154Z" fill="white"/>
</svg>
