<svg xmlns="http://www.w3.org/2000/svg" width="172" height="172" viewBox="0 0 172 172">
  <g id="Save_Product_Active" transform="translate(-309 -577)" opacity="0.8">
    <circle id="Ellipse_25" data-name="Ellipse 25" cx="26" cy="26" r="26" transform="translate(369 637)" opacity="0.5"/>
    <path id="Differenzmenge_3" data-name="Differenzmenge 3" d="M0-986.771v-26.489A2.83,2.83,0,0,1,2.906-1016H20.344a2.83,2.83,0,0,1,2.906,2.74v26.486l-5.419-2.979c-.344-4.917-.537-9.327-.588-13.483,0-.274.093-.449.609-.585a4.073,4.073,0,0,0,2.928-4.264c0-2.932-1.906-6.653-4.047-6.653s-4.047,3.72-4.047,6.653a4.074,4.074,0,0,0,2.9,4.256c.514.14.609.313.6.585-.063,3.732-.233,7.756-.52,12.3l-4.044-2.224-5.058,2.782c-.325-4.733-.506-8.99-.556-13.014,0-.272.092-.446.609-.586,3.546-.943,2.193-6.757,1.466-9.88-.1-.408-.177-.761-.237-1.054l-.1,8.486a.426.426,0,0,1-.435.41.433.433,0,0,1-.435-.41l-.482-8.481-.351,8.481a.477.477,0,0,1-.485.41.477.477,0,0,1-.485-.41l-.335-8.477-.551,8.477a.433.433,0,0,1-.436.41.427.427,0,0,1-.434-.41l-.071-8.472c-.072.358-.173.783-.289,1.275-.769,3.251-2.057,8.692,1.394,9.64.513.141.608.315.6.586-.072,4.278-.278,8.81-.649,14.26L0-986.772Z" transform="translate(382.899 1664)" fill="#ffe037"/>
  </g>
</svg>
