<svg xmlns="http://www.w3.org/2000/svg" width="23.659" height="23.659" viewBox="0 0 23.659 23.659">
  <g id="setting" transform="translate(-0.5 -0.5)" opacity="0.8">
    <path id="Path_125" data-name="Path 125" d="M19.407,16.454A2.954,2.954,0,1,1,16.454,13.5,2.954,2.954,0,0,1,19.407,16.454Z" transform="translate(-4.124 -4.124)" fill="#fff"/>
    <path id="Path_126" data-name="Path 126" d="M19.615,15.283a1.624,1.624,0,0,0,.325,1.792l.059.059a1.97,1.97,0,1,1-2.786,2.786l-.059-.059a1.638,1.638,0,0,0-2.776,1.162v.167a1.969,1.969,0,0,1-3.938,0V21.1a1.624,1.624,0,0,0-1.063-1.487,1.624,1.624,0,0,0-1.792.325L7.525,20a1.97,1.97,0,1,1-2.786-2.786l.059-.059a1.638,1.638,0,0,0-1.162-2.776H3.469a1.969,1.969,0,0,1,0-3.938h.089A1.624,1.624,0,0,0,5.044,9.376a1.624,1.624,0,0,0-.325-1.792L4.66,7.525A1.97,1.97,0,1,1,7.446,4.739l.059.059A1.624,1.624,0,0,0,9.3,5.123h.079a1.624,1.624,0,0,0,.985-1.487V3.469a1.969,1.969,0,1,1,3.938,0v.089a1.638,1.638,0,0,0,2.776,1.162l.059-.059A1.97,1.97,0,1,1,19.92,7.446l-.059.059A1.624,1.624,0,0,0,19.536,9.3v.079a1.624,1.624,0,0,0,1.487.985h.167a1.969,1.969,0,0,1,0,3.938H21.1a1.624,1.624,0,0,0-1.487.985Z" transform="translate(0 0)" fill="none" stroke="#fff" stroke-linecap="round" stroke-linejoin="round" stroke-width="2"/>
  </g>
</svg>
