<svg id="Ebene_1" data-name="Ebene 1" xmlns="http://www.w3.org/2000/svg" viewBox="0 0 46.34 48.32"><defs><style>.cls-1{fill:#fff;}</style></defs><path class="cls-1" d="M46.83,36.1c-2.74-4-6.53-3.44-8.83-5.8s-.4-4.73-4-9.61a13.28,13.28,0,0,0-7.63-5.25c-1.67-.52-5.62-1.11-6-4.34C19.81,6.84,18,4.48,12.76,2.69c-3-1-8.07-2.67-9.79-1C1.74,2.89,2.36,9,3,12.22,3.85,17,7.12,19.34,11.16,20c3.2.55,3.84,4.42,4.16,6.14.51,2.72.79,5.17,4.65,7.9,3.28,2.32,7.58,1.8,9.87,4.16s1.84,5.84,5.55,9C42.64,53.37,52.7,44.73,46.83,36.1ZM16.37,15.88c-2.14,2.08-6,1.57-8.66-1.15S4.66,8.12,6.8,6s6-1.57,8.66,1.15S18.51,13.8,16.37,15.88ZM31.49,31.77c-2.57,2.49-7.21,1.88-10.38-1.38s-3.32-7.4-.75-9.9,6.88-2.39,10.05.86S34.06,29.27,31.49,31.77Zm12.7,13.17c-2,1.92-5.53,1.45-8-1s-2.8-6.08-.83-8,5.53-1.44,8,1.05S46.16,43,44.19,44.94Z" transform="translate(-2.26 -0.98)"/></svg>