<svg xmlns="http://www.w3.org/2000/svg" width="124.843" height="86.961" viewBox="0 0 124.843 86.961">
  <g id="stories-icon" transform="translate(-1366.733 -17.117)">
    <g id="Ellipse_285" data-name="Ellipse 285" transform="translate(1406 38)" fill="none" stroke="#707070" stroke-width="1" opacity="0">
      <circle cx="22.5" cy="22.5" r="22.5" stroke="none"/>
      <circle cx="22.5" cy="22.5" r="22" fill="none"/>
    </g>
    <path id="Path_93" data-name="Path 93" d="M1397.62,57s2.066-7.9,13.431-4.133c14.759,3.985,17.121,15.571,35.422,20.811,11.77,2.634,14.981-8.708,14.981-8.708s-3.837,7.749-16.088,3.026c-8.955-3.216-23.615-19.482-34.315-20.073C1399.243,47.705,1397.62,57,1397.62,57Z" fill="#e6ff00" opacity="0"/>
    <path id="Path_94" data-name="Path 94" d="M1417.028,56.118c6.125,4.428-10.331-4.059-11.069,4.5-.372,4.215,6.608,7.718,14.021,3.616,9.625-5.325,21.647-19.577,31.363-16.752,16.752,4.871,12.471,31.659-9.446,18.228,0,0,9.372,2.8,11.881-3.985s-9.3-8.856-17.637-2.8-15.9,13.56-25.755,14.612-16.161-8.413-12.693-15.276S1410.9,51.69,1417.028,56.118Z" fill="#fff" opacity="0"/>
    <path id="Path_95" data-name="Path 95" d="M1397.62,57s2.066-7.9,13.431-4.133c14.759,3.985,17.121,15.571,35.422,20.811,11.77,2.634,14.981-8.708,14.981-8.708s-3.837,7.749-16.088,3.026c-8.955-3.216-23.615-19.482-34.315-20.073C1399.243,47.705,1397.62,57,1397.62,57Z" fill="#e6ff00" opacity="0"/>
    <path id="Path_96" data-name="Path 96" d="M1417.028,56.118c6.125,4.428-10.331-4.059-11.069,4.5-.372,4.215,6.608,7.718,14.021,3.616,9.625-5.325,21.647-19.577,31.363-16.752,16.752,4.871,12.471,31.659-9.446,18.228,0,0,9.372,2.8,11.881-3.985s-9.3-8.856-17.637-2.8-15.9,13.56-25.755,14.612-16.161-8.413-12.693-15.276S1410.9,51.69,1417.028,56.118Z" fill="#fff" opacity="0"/>
    <path id="Path_97" data-name="Path 97" d="M1397.62,57s2.066-7.9,13.431-4.133c14.759,3.985,17.121,15.571,35.422,20.811,11.77,2.634,14.981-8.708,14.981-8.708s-3.837,7.749-16.088,3.026c-8.955-3.216-23.615-19.482-34.315-20.073C1399.243,47.705,1397.62,57,1397.62,57Z" fill="#e6ff00" opacity="0" style="mix-blend-mode: difference;isolation: isolate"/>
    <path id="Path_98" data-name="Path 98" d="M1417.028,56.118c6.125,4.428-10.331-4.059-11.069,4.5-.372,4.215,6.608,7.718,14.021,3.616,9.625-5.325,21.647-19.577,31.363-16.752,16.752,4.871,12.471,31.659-9.446,18.228,0,0,9.372,2.8,11.881-3.985s-9.3-8.856-17.637-2.8-15.9,13.56-25.755,14.612-16.161-8.413-12.693-15.276S1410.9,51.69,1417.028,56.118Z" fill="#fff" opacity="0" style="mix-blend-mode: difference;isolation: isolate"/>
    <path id="Path_99" data-name="Path 99" d="M1404.431,51.9a15.929,15.929,0,0,1,6.62.971c14.759,3.985,17.121,15.571,35.422,20.811,4.708,1.054,8.046-.129,10.592-2.114,3.233-2.511,3.049-3.887-.87-2.553-2.215.762-5.818.916-10.828-1.015-8.955-3.216-23.615-19.482-34.315-20.073a16.039,16.039,0,0,0-7.426,1.492C1401.292,51.6,1404.382,52.206,1404.431,51.9Z" fill="#fff" opacity="1"/>
    <path id="Path_100" data-name="Path 100" d="M1410.718,56.712c-2.219.007-4.5.843-4.76,3.908-.372,4.215,6.608,7.718,14.021,3.616,9.625-5.325,21.647-19.577,31.363-16.752,13.552,3.94,13.339,22.225.85,21.944-2.567-.053-5.7-2.342-1.806-3.97a6.236,6.236,0,0,0,3.391-3.731c2.509-6.789-9.3-8.856-17.637-2.8s-15.9,13.56-25.755,14.612-16.161-8.413-12.693-15.276c1.953-3.864,5.888-5.35,10.355-5.1C1410.971,53.315,1415.576,56.683,1410.718,56.712Z" fill="#fff" opacity="1"/>
  </g>
</svg>
