<svg xmlns="http://www.w3.org/2000/svg" width="28" height="28" viewBox="0 0 28 28">
  <g id="Storys" transform="translate(-16 -514)">
    <circle id="Ellipse_168" data-name="Ellipse 168" cx="14" cy="14" r="14" transform="translate(16 514)" opacity="0.5"/>
    <g id="Ellipse_180" data-name="Ellipse 180" transform="translate(16 514)" fill="none" stroke="#fff" stroke-width="1">
      <circle cx="14" cy="14" r="14" stroke="none"/>
      <circle cx="14" cy="14" r="13.5" fill="none"/>
    </g>
    <g id="Group_438" data-name="Group 438" transform="translate(17.297 523.067)">
      <path id="Path_164" data-name="Path 164" d="M1403.412,49.482a6.246,6.246,0,0,1,2.6.381c5.786,1.562,6.712,6.1,13.888,8.159a4.684,4.684,0,0,0,4.153-.829c1.268-.984,1.2-1.524-.341-1a6.3,6.3,0,0,1-4.245-.4c-3.511-1.261-9.258-7.638-13.454-7.87a6.289,6.289,0,0,0-2.911.585C1402.181,49.365,1403.393,49.6,1403.412,49.482Z" transform="translate(-1400.394 -47.607)" fill="#fff"/>
      <path id="Path_165" data-name="Path 165" d="M1402.216,50.879a1.638,1.638,0,0,0-1.866,1.532c-.146,1.653,2.591,3.026,5.5,1.418,3.774-2.088,8.487-7.675,12.3-6.568,5.313,1.545,5.23,8.714.333,8.6-1.006-.021-2.236-.918-.708-1.557a2.446,2.446,0,0,0,1.33-1.463c.984-2.662-3.646-3.472-6.915-1.1s-6.235,5.316-10.1,5.729-6.336-3.3-4.976-5.989a3.978,3.978,0,0,1,4.06-2C1402.315,49.547,1404.12,50.867,1402.216,50.879Z" transform="translate(-1396.733 -47.117)" fill="#fff"/>
    </g>
  </g>
</svg>
