<svg width="25" height="25" viewBox="0 0 25 25" fill="none" xmlns="http://www.w3.org/2000/svg">
<circle opacity="0.9" cx="9" cy="10" r="4" fill="white"/>
<circle opacity="0.9" cx="12" cy="12" r="4" fill="white"/>
<circle opacity="0.9" cx="15" cy="14" r="4" fill="white"/>
<path d="M21.9887 17.9675C21.8504 18.2065 21.9321 18.5124 22.1711 18.6506C22.4102 18.7889 22.716 18.7072 22.8543 18.4682L21.9887 17.9675ZM20.7166 20.976L16.7724 19.9227L15.719 23.867L19.6633 24.9203L20.7166 20.976ZM3.62041 4.63065L7.63315 5.38208L8.38457 1.36935L4.37184 0.61792L3.62041 4.63065ZM2.8285 7.23899C2.96049 6.99643 2.87086 6.6928 2.6283 6.56081C2.38574 6.42882 2.08212 6.51846 1.95013 6.76101L2.8285 7.23899ZM12.4786 23.4571C6.41527 23.4571 1.5 18.5419 1.5 12.4786H0.5C0.5 19.0941 5.86298 24.4571 12.4786 24.4571V23.4571ZM12.4786 1.5C18.5419 1.5 23.4571 6.41527 23.4571 12.4786H24.4571C24.4571 5.86298 19.0941 0.5 12.4786 0.5V1.5ZM23.4571 12.4786C23.4571 14.4791 22.9225 16.3532 21.9887 17.9675L22.8543 18.4682C23.8738 16.7058 24.4571 14.6595 24.4571 12.4786H23.4571ZM17.9675 21.9887C16.3532 22.9225 14.4791 23.4571 12.4786 23.4571V24.4571C14.6595 24.4571 16.7058 23.8738 18.4682 22.8543L17.9675 21.9887ZM6.28493 3.41259C8.04775 2.20585 10.18 1.5 12.4786 1.5V0.5C9.97203 0.5 7.64394 1.27042 5.72006 2.58741L6.28493 3.41259ZM1.5 12.4786C1.5 10.5801 1.98144 8.79562 2.8285 7.23899L1.95013 6.76101C1.02526 8.46064 0.5 10.409 0.5 12.4786H1.5Z" fill="white"/>
</svg>
