<svg xmlns="http://www.w3.org/2000/svg" width="26.086" height="18.26" viewBox="0 0 26.086 18.26">
  <path id="user-friends" d="M7.826,11.38A4.565,4.565,0,1,0,3.261,6.815,4.563,4.563,0,0,0,7.826,11.38Zm3.13,1.3h-.338a6.3,6.3,0,0,1-5.584,0H4.7A4.7,4.7,0,0,0,0,17.38v1.174A1.957,1.957,0,0,0,1.956,20.51H13.7a1.957,1.957,0,0,0,1.956-1.956V17.38A4.7,4.7,0,0,0,10.956,12.684Zm8.608-1.3a3.913,3.913,0,1,0-3.913-3.913A3.914,3.914,0,0,0,19.565,11.38Zm1.956,1.3h-.155a5.14,5.14,0,0,1-3.6,0h-.155a4.527,4.527,0,0,0-2.27.628,5.965,5.965,0,0,1,1.618,4.068v1.565c0,.09-.02.175-.024.261h7.2a1.957,1.957,0,0,0,1.956-1.956,4.563,4.563,0,0,0-4.565-4.565Z" transform="translate(0 -2.25)" fill="#fff"/>
</svg>
