<svg width="43" height="42" viewBox="0 0 43 42" fill="none" xmlns="http://www.w3.org/2000/svg">
<path d="M41.8273 20.9137C41.8273 24.723 40.8089 28.2944 39.0294 31.3705C38.015 33.1242 43.2887 40.4433 41.8273 41.8273C40.6429 42.949 32.7918 38.2073 31.3705 39.0294C28.2944 40.8089 24.723 41.8273 20.9137 41.8273C9.36337 41.8273 0 32.464 0 20.9137C0 9.36337 9.36337 0 20.9137 0C32.464 0 41.8273 9.36337 41.8273 20.9137Z" fill="#1F1F1F"/>
<path d="M21 21C24.0387 21 26.5 18.5387 26.5 15.5C26.5 12.4612 24.0387 10 21 10C17.9612 10 15.5 12.4612 15.5 15.5C15.5 18.5387 17.9612 21 21 21ZM21 23.75C17.3287 23.75 10 25.5925 10 29.25V32H32V29.25C32 25.5925 24.6713 23.75 21 23.75Z" fill="white"/>
</svg>
