<svg xmlns="http://www.w3.org/2000/svg" width="34.902" height="27" viewBox="0 0 34.902 27">
  <g id="Verify" transform="translate(-263.279 -741.866)">
    <g id="Verify-2" data-name="Verify">
      <path id="Path_184" data-name="Path 184" d="M14.014,27.528a.741.741,0,0,0-.542.233,9.305,9.305,0,0,1-3.606-1.682.283.283,0,0,0-.057-.044,9.371,9.371,0,0,1-3.624-7.388v0a9.354,9.354,0,0,1,3.495-7.29,2.165,2.165,0,0,0,.2-.124l0,0c.088-.057.225-.132.392-.22,1.176-.638,3.932-2.127,3.716-4.989a.437.437,0,0,0-.436-.405,4.57,4.57,0,0,0-3.02,1.3A5.192,5.192,0,0,0,9.2,10.616a.244.244,0,0,0-.035.026,9.87,9.87,0,0,0-1.427,1.383A5.71,5.71,0,0,0,5.882,7.358a.436.436,0,0,0-.37-.088.443.443,0,0,0-.3.233c-.062.128-1.515,3.113-.511,5.063a2.765,2.765,0,0,0,1.744,1.383A9.739,9.739,0,0,0,5.517,16.6a4.531,4.531,0,0,0-3.571-2.778.439.439,0,0,0-.339.114.424.424,0,0,0-.145.321c0,.145,0,2.827,1.563,4.156a3.058,3.058,0,0,0,2.061.731,2.107,2.107,0,0,0,.233-.009,10.047,10.047,0,0,0,.612,3.025,6.87,6.87,0,0,0-4.469.229.439.439,0,0,0-.26.277.428.428,0,0,0,.053.379c.053.079,1.312,1.942,3.064,1.959H4.35a3.116,3.116,0,0,0,2.338-1.233A10.155,10.155,0,0,0,8.427,26c-1.316.2-3.293,1.026-3.729,4.108a.435.435,0,0,0,.114.361.427.427,0,0,0,.321.141h.031c.035,0,3.624-.286,4.667-3.478a10.031,10.031,0,0,0,3.531,1.506.747.747,0,1,0,.652-1.11Z" transform="translate(262.1 736.256)" fill="#fff"/>
      <path id="Path_185" data-name="Path 185" d="M49.5,22.663a.439.439,0,0,0-.26-.277,6.87,6.87,0,0,0-4.469-.229,10.047,10.047,0,0,0,.612-3.025,2.106,2.106,0,0,0,.233.009,3.058,3.058,0,0,0,2.061-.731c1.559-1.33,1.563-4.011,1.563-4.156a.424.424,0,0,0-.145-.321.439.439,0,0,0-.339-.114A4.531,4.531,0,0,0,45.187,16.6a9.739,9.739,0,0,0-.925-2.646,2.765,2.765,0,0,0,1.744-1.383c1-1.951-.449-4.936-.511-5.063a.443.443,0,0,0-.3-.233.435.435,0,0,0-.37.088,5.71,5.71,0,0,0-1.854,4.667,9.87,9.87,0,0,0-1.427-1.383.244.244,0,0,0-.035-.026,5.192,5.192,0,0,0-1.339-3.707,4.57,4.57,0,0,0-3.02-1.3.437.437,0,0,0-.436.405C36.5,8.877,39.252,10.365,40.428,11c.167.092.308.163.387.216,0,0,0,0,.009.009a2.165,2.165,0,0,0,.2.123,9.355,9.355,0,0,1,3.5,7.291v0a9.373,9.373,0,0,1-3.681,7.432,9.258,9.258,0,0,1-3.681,1.7.736.736,0,0,0-.458-.185.749.749,0,1,0-.062,1.5.738.738,0,0,0,.718-.458,10.04,10.04,0,0,0,3.518-1.5,4.878,4.878,0,0,0,1.68,2.33A5.928,5.928,0,0,0,45.54,30.61h.031a.427.427,0,0,0,.321-.141.435.435,0,0,0,.114-.361,5.357,5.357,0,0,0-1.275-2.887A3.992,3.992,0,0,0,42.277,26a10.156,10.156,0,0,0,1.739-2.232A3.116,3.116,0,0,0,46.354,25h.031c1.752-.018,3.012-1.88,3.064-1.959a.428.428,0,0,0,.053-.379Z" transform="translate(248.656 736.256)" fill="#fff"/>
      <path id="Icon_material-verified-user" data-name="Icon material-verified-user" d="M7.446,1.5,4.5,2.809V4.774A4.074,4.074,0,0,0,7.446,8.7a4.074,4.074,0,0,0,2.946-3.928V2.809ZM6.792,6.738,5.482,5.428l.462-.462.848.845L8.949,3.654l.462.465Z" transform="translate(273.421 760.164)" fill="#fff"/>
    </g>
    <path id="chef" d="M29.005,19.908a3.281,3.281,0,0,0-.467.035,3.612,3.612,0,0,0-6.428,0,3.281,3.281,0,0,0-.467-.035,3.143,3.143,0,0,0-.819,6.177V28a4.458,4.458,0,0,0,1.418.454V26.363a.44.44,0,0,1,.881,0V28.6c.489.057,1.074.1,1.761.114V26.363a.44.44,0,0,1,.881,0v2.351c.691-.009,1.272-.048,1.761-.1v-2.25a.44.44,0,0,1,.881,0v2.113A3.8,3.8,0,0,0,29.824,28V26.086a3.143,3.143,0,0,0-.819-6.177Zm1.039,9.017a.43.43,0,0,0-.22-.044,3.8,3.8,0,0,1-1.418.476v.013c-.26.053-.546.088-.85.119a.075.075,0,0,0-.031,0c-.489.053-1.07.092-1.761.1-.114,0-.238,0-.361,0s-.216,0-.317,0h-.2v0c-.687-.013-1.272-.057-1.761-.114V29.5c-.317-.031-.612-.07-.881-.119v-.044a4.458,4.458,0,0,1-1.418-.454.445.445,0,0,0-.511.436v1.625c0,.282,0,1.145,5.235,1.145a22.246,22.246,0,0,0,3.034-.176c.845-.119,1.708-.33,1.708-.969V29.318a.434.434,0,0,0-.247-.392Z" transform="translate(255.406 729.333)" fill="#fff"/>
    <g id="add.res" opacity="0">
      <path id="Path_182" data-name="Path 182" d="M287.134,745.511v3.372" fill="none" stroke="#fff" stroke-linecap="round" stroke-width="1"/>
      <path id="Path_183" data-name="Path 183" d="M285.342,747.2h3.569" fill="none" stroke="#fff" stroke-linecap="round" stroke-width="1"/>
    </g>
  </g>
</svg>
