<svg xmlns="http://www.w3.org/2000/svg" width="32.001" height="24.889" viewBox="0 0 32.001 24.889">
  <path id="visa" d="M26.117,13.322s.422,2.067.517,2.5H24.778c.183-.494.889-2.417.889-2.417-.011.017.183-.506.294-.828l.156.744ZM32,4.917V24.473a2.667,2.667,0,0,1-2.667,2.667H2.667A2.667,2.667,0,0,1,0,24.473V4.917A2.667,2.667,0,0,1,2.667,2.25H29.334A2.667,2.667,0,0,1,32,4.917ZM8.472,18.873l3.511-8.622H9.622L7.439,16.139,7.2,14.945l-.778-3.967a.929.929,0,0,0-1.011-.728H1.817l-.039.172a8.816,8.816,0,0,1,2.344.95l1.989,7.5Zm5.245.011,1.4-8.633H12.884l-1.394,8.633h2.228Zm7.772-2.822c.011-.983-.589-1.733-1.872-2.35-.783-.394-1.261-.661-1.261-1.067.011-.367.406-.744,1.283-.744a3.828,3.828,0,0,1,1.661.328l.2.094.306-1.867a5.548,5.548,0,0,0-2-.367c-2.206,0-3.756,1.178-3.767,2.856-.017,1.239,1.111,1.928,1.956,2.344.861.422,1.156.7,1.156,1.072-.011.578-.7.844-1.339.844a4.45,4.45,0,0,1-2.094-.461l-.294-.139-.311,1.939a6.817,6.817,0,0,0,2.489.461C19.945,19.011,21.473,17.85,21.489,16.061Zm7.845,2.822-1.8-8.633H25.806a1.1,1.1,0,0,0-1.167.717l-3.317,7.917h2.344s.383-1.067.467-1.294H27c.067.306.267,1.294.267,1.294Z" transform="translate(0 -2.25)" fill="#fff"/>
</svg>
