<svg xmlns="http://www.w3.org/2000/svg" width="26.311" height="30.07" viewBox="0 0 26.311 30.07">
  <path id="wheelchair" d="M10.888,5.732A2.506,2.506,0,1,0,8.382,3.226,2.508,2.508,0,0,0,10.888,5.732Zm1.769,22.975a7.787,7.787,0,0,1-7.728-7.854,7.878,7.878,0,0,1,2.709-5.944L7.5,12.452A9.942,9.942,0,0,0,12.657,30.79a10.269,10.269,0,0,0,9.017-6.265l-1.488-2.05a7.741,7.741,0,0,1-7.528,6.231ZM27.938,23.9H26.685l-5.012-6.891c-.271-.477-1.253-1.879-2.506-1.879H13.53V12.623h5.012c.649,0,1.349-.276,1.349-.943s-.682-.936-1.349-.936H13.53V8.238c-.092-1.389-1.253-1.879-2.5-1.851s-1.886.6-1.886,1.851v8.77c.119,1.407,1.132,1.879,2.506,1.879h7.518l4.385,5.638c.283.467,1.253,1.879,1.253,1.879h3.132a1.253,1.253,0,0,0,0-2.506Z" transform="translate(-2.88 -0.72)" fill="#fff"/>
</svg>
