<svg xmlns="http://www.w3.org/2000/svg" width="17.449" height="31.867" viewBox="0 0 17.449 31.867">
  <g id="wpay" transform="translate(-1187.257 -507.133)">
    <rect id="Rectangle_32" data-name="Rectangle 32" width="16" height="4" transform="translate(1188 518)" fill="#fff"/>
    <rect id="Rectangle_33" data-name="Rectangle 33" width="4" height="4" transform="translate(1188 524)" fill="#fff"/>
    <rect id="Rectangle_34" data-name="Rectangle 34" width="4" height="4" transform="translate(1194 524)" fill="#fff"/>
    <rect id="Rectangle_35" data-name="Rectangle 35" width="4" height="4" transform="translate(1200 524)" fill="#fff"/>
    <rect id="Rectangle_36" data-name="Rectangle 36" width="4" height="4" transform="translate(1188 530)" fill="#fff"/>
    <rect id="Rectangle_37" data-name="Rectangle 37" width="4" height="4" transform="translate(1194 530)" fill="#fff"/>
    <rect id="Rectangle_38" data-name="Rectangle 38" width="4" height="4" transform="translate(1200 530)" fill="#fff"/>
    <rect id="Rectangle_39" data-name="Rectangle 39" width="4" height="4" transform="translate(1188 535)" fill="#fff"/>
    <rect id="Rectangle_40" data-name="Rectangle 40" width="4" height="4" transform="translate(1194 535)" fill="#fff"/>
    <rect id="Rectangle_41" data-name="Rectangle 41" width="4" height="4" transform="translate(1200 535)" fill="#fff"/>
    <g id="Icon_feather-wifi" data-name="Icon feather-wifi" transform="translate(1185.832 500.129)">
      <path id="Path_6" data-name="Path 6" d="M7.5,16.934a8.337,8.337,0,0,1,10.672,0" transform="translate(-2.657 -3.71)" fill="none" stroke="#fff" stroke-linecap="round" stroke-linejoin="round" stroke-width="1"/>
      <path id="Path_7" data-name="Path 7" d="M2.13,10.534a12.127,12.127,0,0,1,16.038,0" fill="none" stroke="#fff" stroke-linecap="round" stroke-linejoin="round" stroke-width="1"/>
      <path id="Path_8" data-name="Path 8" d="M12.8,23.342a4.548,4.548,0,0,1,5.268,0" transform="translate(-5.276 -7.42)" fill="none" stroke="#fff" stroke-linecap="round" stroke-linejoin="round" stroke-width="1"/>
      <path id="Path_9" data-name="Path 9" d="M18,30h0" transform="translate(-7.851 -11.129)" fill="none" stroke="#fff" stroke-linecap="round" stroke-linejoin="round" stroke-width="1"/>
    </g>
  </g>
</svg>
